External Loads File
version=1
nRows=38
nColumns=13
Range=5.000000e-03-10 seconds
endheader
time 	forceRightX 	forceRightY 	forceRightZ 	pointRightX 	pointRightY 	pointRightZ 	forceLeftX 	forceLeftY 	forceLeftZ 	pointLeftX 	pointLeftY 	pointLeftZ 		
5.005000 5.630445 -29.565603 -0.000000 0.158149 0.403838 -0.149810 -14.009717 1013.609935 -0.000000 0.405502 0.238035 -0.385326
5.010000 0.017752 -31.816727 -0.000000 0.163424 0.413929 -0.150037 53.859079 1034.629787 -0.000000 0.400357 0.228528 -0.385070
5.015000 -2.423421 -34.355898 -0.000000 0.169191 0.423628 -0.150229 -3.292517 1057.077916 -0.000000 0.394652 0.219479 -0.384788
5.020000 -9.627489 -36.565749 -0.000000 0.175435 0.432885 -0.150639 73.122305 1073.505312 -0.000000 0.388403 0.210958 -0.384470
5.025000 -12.650676 -39.768054 -0.000000 0.182163 0.441721 -0.150980 21.385015 1091.686556 -0.000000 0.381627 0.202888 -0.384190
5.030000 -20.608744 -41.167001 -0.000000 0.189245 0.450465 -0.151504 104.702608 1099.015394 -0.000000 0.374350 0.195303 -0.383926
5.035000 -23.653604 -44.733011 -0.000000 0.197015 0.458204 -0.151638 58.968086 1110.046623 -0.000000 0.366651 0.188096 -0.383770
5.040000 -32.953379 -44.384495 -0.000000 0.205012 0.465334 -0.151931 171.643318 1100.936816 -0.000000 0.358544 0.181252 -0.383423
5.045000 -35.874726 -47.906542 -0.000000 0.213385 0.472152 -0.152338 130.302569 1103.803629 -0.000000 0.350067 0.175209 -0.383316
5.050000 -44.242326 -46.211788 -0.000000 0.222774 0.478224 -0.152239 220.497331 1080.771581 -0.000000 0.341262 0.169782 -0.383114
5.055000 -46.689423 -48.338215 -0.000000 0.231623 0.483971 -0.152735 180.223274 1073.739347 -0.000000 0.332248 0.164983 -0.382985
5.060000 -54.398491 -42.468104 -0.000000 0.240598 0.488713 -0.153245 271.248827 1033.455980 -0.000000 0.322993 0.160748 -0.382828
5.065000 -55.952313 -40.271608 -0.000000 0.250209 0.492787 -0.153364 233.148830 1015.459327 -0.000000 0.313659 0.157245 -0.382666
5.070000 -60.783959 -27.748640 -0.000000 0.259751 0.496328 -0.153581 313.541549 958.657929 -0.000000 0.304117 0.154356 -0.382584
5.075000 -60.382337 -18.556377 -0.000000 0.269464 0.499257 -0.153786 271.762632 929.246936 -0.000000 0.294525 0.152087 -0.382522
5.080000 -59.707189 2.632769 -0.000000 0.279177 0.501473 -0.153906 344.245202 853.119304 -0.000000 0.284873 0.150518 -0.382400
5.085000 -56.528273 20.220597 -0.000000 0.288874 0.503049 -0.154038 300.140249 809.772197 -0.000000 0.275246 0.149735 -0.382323
5.090000 -47.616193 48.197741 -0.000000 0.298489 0.503789 -0.154205 349.201000 718.747270 -0.000000 0.265697 0.149594 -0.382329
5.095000 -41.603928 72.959950 -0.000000 0.307552 0.503918 -0.154036 301.833781 661.221761 -0.000000 0.256278 0.150342 -0.382299
5.100000 -23.304007 104.387647 -0.000000 0.316426 0.503352 -0.153929 329.798441 557.750388 -0.000000 0.247077 0.151764 -0.382204
5.105000 -15.683910 133.439053 -0.000000 0.324810 0.501874 -0.153839 279.417253 489.942895 -0.000000 0.238104 0.153968 -0.382106
5.110000 10.110455 164.252441 -0.000000 0.332626 0.499702 -0.153320 281.908362 384.938585 -0.000000 0.229358 0.156911 -0.381937
5.115000 16.410947 196.036119 -0.000000 0.340172 0.496770 -0.152838 229.926762 314.656862 -0.000000 0.220821 0.160580 -0.381705
5.120000 52.561280 224.465270 -0.000000 0.347371 0.492999 -0.152223 216.823191 213.627021 -0.000000 0.212631 0.164853 -0.381422
5.125000 55.139777 260.211809 -0.000000 0.354202 0.488472 -0.151557 165.568851 150.695033 -0.000000 0.204609 0.169652 -0.381167
5.130000 89.373921 289.616609 -0.000000 0.360480 0.483219 -0.150948 131.760755 74.344018 -0.000000 0.196852 0.175156 -0.380879
5.135000 85.617272 330.806064 -0.000000 0.367095 0.477182 -0.150591 88.359831 23.498009 -0.000000 0.189332 0.180851 -0.380573
5.140000 121.111747 361.681081 -0.000000 0.373200 0.470413 -0.149960 49.969863 -28.550570 -0.000000 0.182135 0.187129 -0.380355
5.145000 109.032813 407.207023 -0.000000 0.379018 0.463019 -0.149445 18.078523 -64.051451 -0.000000 0.175197 0.193875 -0.380097
5.150000 145.021577 437.807897 -0.000000 0.384551 0.455094 -0.149269 -17.102616 -91.980877 -0.000000 0.168607 0.200949 -0.379928
5.155000 121.652979 484.305942 -0.000000 0.390035 0.446628 -0.149281 -35.510654 -112.715721 -0.000000 0.161579 0.208602 -0.378785
5.160000 164.607216 509.069202 -0.000000 0.394982 0.437521 -0.149280 -64.286530 -119.827915 -0.000000 0.155743 0.216788 -0.378623
5.165000 131.356037 552.080215 -0.000000 0.399652 0.428290 -0.149341 -70.335454 -128.488521 -0.000000 0.150373 0.225163 -0.378604
5.170000 162.211822 574.019789 -0.000000 0.403906 0.418489 -0.149292 -86.371836 -122.888270 -0.000000 0.145376 0.233949 -0.378503
5.175000 116.870339 611.206330 -0.000000 0.408538 0.408496 -0.149213 -81.720486 -123.465969 -0.000000 0.140858 0.243142 -0.378443
5.180000 143.939562 629.201671 -0.000000 0.412312 0.398118 -0.149214 -87.621871 -110.629958 -0.000000 0.136839 0.252676 -0.378414
5.185000 89.290491 660.834117 -0.000000 0.415590 0.387587 -0.149330 -75.749289 -106.306246 -0.000000 0.133384 0.262352 -0.378452
5.190000 125.133732 675.742994 -0.000000 0.418399 0.376816 -0.149360 -75.324535 -89.989251 -0.000000 0.130376 0.272469 -0.378379
